<svg xmlns="http://www.w3.org/2000/svg" width="55" height="55" fill="none" viewBox="0 0 55 55"><g clip-path="url(#a)"><rect width="43.171" height="36.695" x="1.843" y="15.476" fill="url(#b)" rx="1.125" transform="rotate(-9 1.843 15.476)"/><rect width="43.171" height="36.695" x="5.771" y="9.315" fill="url(#c)" rx="1.125" transform="rotate(-9 5.771 9.315)"/><path fill="url(#d)" d="M6.481 13.787 43.49 7.926a1.125 1.125 0 0 1 1.287.935l4.856 30.658-37.009 5.862a1.125 1.125 0 0 1-1.287-.935z"/><path fill="url(#e)" fill-rule="evenodd" d="m43.728 21.934-9.955 8.01-.639-4.033-6.662 1.055-.714-4.51L32.42 21.4l-.635-4.009z" clip-rule="evenodd"/><path fill="url(#f)" fill-rule="evenodd" d="m12.892 34.939 11.943 4.542-.639-4.033 6.663-1.055-.714-4.51-6.663 1.055-.635-4.01z" clip-rule="evenodd"/><circle cx="12.121" cy="18.181" r="1.923" fill="url(#g)" transform="rotate(-9 12.121 18.18)"/><circle cx="17.55" cy="17.322" r="1.923" fill="url(#h)" transform="rotate(-9 17.55 17.322)"/><circle cx="23.036" cy="16.452" r="1.923" fill="url(#i)" transform="rotate(-9 23.036 16.452)"/></g><defs><linearGradient id="b" x1="23.428" x2="23.428" y1="15.476" y2="52.171" gradientUnits="userSpaceOnUse"><stop stop-color="#d619ac"/><stop offset="1" stop-color="#d0224c"/></linearGradient><linearGradient id="c" x1="27.357" x2="27.357" y1="9.315" y2="46.01" gradientUnits="userSpaceOnUse"><stop stop-color="#1ddfdf"/><stop offset="1" stop-color="#1d8cdc"/></linearGradient><linearGradient id="d" x1="25.541" x2="30.573" y1="10.768" y2="42.538" gradientUnits="userSpaceOnUse"><stop stop-color="#161386"/><stop offset="1" stop-color="#0a093d"/></linearGradient><linearGradient id="e" x1="33.928" x2="35.916" y1="17.053" y2="29.605" gradientUnits="userSpaceOnUse"><stop stop-color="#fff"/><stop offset="1" stop-color="#eafefe"/></linearGradient><linearGradient id="f" x1="20.704" x2="22.692" y1="27.268" y2="39.82" gradientUnits="userSpaceOnUse"><stop stop-color="#fff"/><stop offset="1" stop-color="#eafefe"/></linearGradient><linearGradient id="g" x1="12.121" x2="12.121" y1="16.258" y2="20.104" gradientUnits="userSpaceOnUse"><stop stop-color="#fff"/><stop offset="1" stop-color="#eafefe"/></linearGradient><linearGradient id="h" x1="17.55" x2="17.55" y1="15.398" y2="19.245" gradientUnits="userSpaceOnUse"><stop stop-color="#fff"/><stop offset="1" stop-color="#eafefe"/></linearGradient><linearGradient id="i" x1="23.036" x2="23.036" y1="14.529" y2="18.376" gradientUnits="userSpaceOnUse"><stop stop-color="#fff"/><stop offset="1" stop-color="#eafefe"/></linearGradient><clipPath id="a"><path fill="#fff" d="M0 0h55v55H0z"/></clipPath></defs></svg>