      <svg class="frame" viewBox="0 0 619 377" preserveAspectRatio="xMidYMid meet" fill="none" xmlns="http://www.w3.org/2000/svg" aria-hidden="true">
        <path d="M29.7988 374.291H65.9186L63.4741 376.736C63.3047 376.905 63.075 377 62.8355 377H32.8818C32.6423 377 32.4126 376.905 32.2433 376.736L29.7988 374.291Z" fill="url(#mb-p0)"/>
        <path d="M29.7988 374.291H65.9186L63.4741 376.736C63.3047 376.905 63.075 377 62.8355 377H32.8818C32.6423 377 32.4126 376.905 32.2433 376.736L29.7988 374.291Z" fill="url(#mb-p1)" fill-opacity="0.7"/>
        <path d="M29.3473 374.291H66.37L65.5445 375.117C65.2058 375.455 64.7465 375.646 64.2675 375.646H31.4498C30.9709 375.646 30.5115 375.455 30.1728 375.117L29.3473 374.291Z" fill="url(#mb-p2)"/>
        <path d="M552.632 374.291H588.752L586.308 376.736C586.138 376.905 585.909 377 585.669 377H555.715C555.476 377 555.246 376.905 555.077 376.736L552.632 374.291Z" fill="url(#mb-p3)"/>
        <path d="M552.632 374.291H588.752L586.308 376.736C586.138 376.905 585.909 377 585.669 377H555.715C555.476 377 555.246 376.905 555.077 376.736L552.632 374.291Z" fill="url(#mb-p4)" fill-opacity="0.7"/>
        <path d="M552.181 374.291H589.204L588.378 375.117C588.039 375.455 587.58 375.646 587.101 375.646H554.283C553.804 375.646 553.345 375.455 553.006 375.117L552.181 374.291Z" fill="url(#mb-p5)"/>
        <g filter="url(#mb-f0)">
          <path d="M0 353.522C0 353.023 0.404284 352.619 0.902994 352.619H617.648C618.147 352.619 618.551 353.023 618.551 353.522V363.004C618.551 369.237 613.497 374.291 607.263 374.291H11.2874C5.05353 374.291 0 369.237 0 363.004V353.522Z" fill="url(#mb-p6)"/>
          <path d="M0 353.522C0 353.023 0.404284 352.619 0.902994 352.619H617.648C618.147 352.619 618.551 353.023 618.551 353.522V363.004C618.551 369.237 613.497 374.291 607.263 374.291H11.2874C5.05353 374.291 0 369.237 0 363.004V353.522Z" fill="url(#mb-p7)" fill-opacity="0.7"/>
        </g>
        <g filter="url(#mb-f1)">
          <path d="M261.868 352.619H356.683V352.619C356.683 356.359 353.65 359.392 349.91 359.392H268.641C264.9 359.392 261.868 356.359 261.868 352.619V352.619Z" fill="url(#mb-p8)"/>
        </g>
        <g filter="url(#mb-f2)">
          <path d="M48.3102 13.0934C48.3102 5.86213 54.1723 0 61.4036 0H557.147C564.379 0 570.241 5.86212 570.241 13.0934V352.619H48.3102V13.0934Z" fill="#6D6E70"/>
        </g>
        <path d="M49.2132 13.0934C49.2132 6.36087 54.671 0.903015 61.4036 0.903015H557.147C563.88 0.903015 569.338 6.36085 569.338 13.0934V352.619H49.2132V13.0934Z" fill="#1F1F1F"/>
        <path d="M50.5677 13.0935C50.5677 7.10894 55.4191 2.25751 61.4036 2.25751H557.147C563.132 2.25751 567.983 7.10892 567.983 13.0934V340.429H50.5677V13.0935Z" fill="black"/>
        <rect x="50.5677" y="340.429" width="517.416" height="12.1904" fill="url(#mb-p9)"/>
        <defs>
          <filter id="mb-f0" x="0" y="352.619" width="618.551" height="22.1234" filterUnits="userSpaceOnUse" color-interpolation-filters="sRGB">
            <feFlood flood-opacity="0" result="BackgroundImageFix"/>
            <feBlend mode="normal" in="SourceGraphic" in2="BackgroundImageFix" result="shape"/>
            <feColorMatrix in="SourceAlpha" type="matrix" values="0 0 0 0 0 0 0 0 0 0 0 0 0 0 0 0 0 0 127 0" result="hardAlpha"/>
            <feOffset dy="0.451497"/>
            <feGaussianBlur stdDeviation="0.225748"/>
            <feComposite in2="hardAlpha" operator="arithmetic" k2="-1" k3="1"/>
            <feColorMatrix type="matrix" values="0 0 0 0 1 0 0 0 0 1 0 0 0 0 1 0 0 0 0.36 0"/>
            <feBlend mode="normal" in2="shape" result="effect1_innerShadow"/>
          </filter>
          <filter id="mb-f1" x="260.514" y="351.716" width="97.5233" height="7.67545" filterUnits="userSpaceOnUse" color-interpolation-filters="sRGB">
            <feFlood flood-opacity="0" result="BackgroundImageFix"/>
            <feBlend mode="normal" in="SourceGraphic" in2="BackgroundImageFix" result="shape"/>
            <feColorMatrix in="SourceAlpha" type="matrix" values="0 0 0 0 0 0 0 0 0 0 0 0 0 0 0 0 0 0 127 0" result="hardAlpha"/>
            <feMorphology radius="1.35449" operator="dilate" in="SourceAlpha" result="effect1_innerShadow"/>
            <feOffset dx="1.80599"/>
            <feGaussianBlur stdDeviation="1.35449"/>
            <feComposite in2="hardAlpha" operator="arithmetic" k2="-1" k3="1"/>
            <feColorMatrix type="matrix" values="0 0 0 0 0 0 0 0 0 0 0 0 0 0 0 0 0 0 1 0"/>
            <feBlend mode="normal" in2="shape" result="effect1_innerShadow"/>
            <feColorMatrix in="SourceAlpha" type="matrix" values="0 0 0 0 0 0 0 0 0 0 0 0 0 0 0 0 0 0 127 0" result="hardAlpha"/>
            <feMorphology radius="1.35449" operator="dilate" in="SourceAlpha" result="effect2_innerShadow"/>
            <feOffset dx="-1.80599"/>
            <feGaussianBlur stdDeviation="1.35449"/>
            <feComposite in2="hardAlpha" operator="arithmetic" k2="-1" k3="1"/>
            <feColorMatrix type="matrix" values="0 0 0 0 0 0 0 0 0 0 0 0 0 0 0 0 0 0 1 0"/>
            <feBlend mode="normal" in2="effect1_innerShadow" result="effect2_innerShadow"/>
            <feColorMatrix in="SourceAlpha" type="matrix" values="0 0 0 0 0 0 0 0 0 0 0 0 0 0 0 0 0 0 127 0" result="hardAlpha"/>
            <feOffset dy="-0.902994"/>
            <feGaussianBlur stdDeviation="0.451497"/>
            <feComposite in2="hardAlpha" operator="arithmetic" k2="-1" k3="1"/>
            <feColorMatrix type="matrix" values="0 0 0 0 1 0 0 0 0 1 0 0 0 0 1 0 0 0 0.4 0"/>
            <feBlend mode="normal" in2="effect2_innerShadow" result="effect3_innerShadow"/>
          </filter>
          <filter id="mb-f2" x="48.3102" y="0" width="521.93" height="352.619" filterUnits="userSpaceOnUse" color-interpolation-filters="sRGB">
            <feFlood flood-opacity="0" result="BackgroundImageFix"/>
            <feBlend mode="normal" in="SourceGraphic" in2="BackgroundImageFix" result="shape"/>
            <feColorMatrix in="SourceAlpha" type="matrix" values="0 0 0 0 0 0 0 0 0 0 0 0 0 0 0 0 0 0 127 0" result="hardAlpha"/>
            <feMorphology radius="0.225748" operator="erode" in="SourceAlpha" result="effect1_innerShadow"/>
            <feOffset/>
            <feGaussianBlur stdDeviation="0.225748"/>
            <feComposite in2="hardAlpha" operator="arithmetic" k2="-1" k3="1"/>
            <feColorMatrix type="matrix" values="0 0 0 0 0.666667 0 0 0 0 0.666667 0 0 0 0 0.666667 0 0 0 1 0"/>
            <feBlend mode="normal" in2="shape" result="effect1_innerShadow"/>
          </filter>
          <linearGradient id="mb-p0" x1="31.1533" y1="376.323" x2="64.3383" y2="376.323" gradientUnits="userSpaceOnUse"><stop stop-color="#494949"/><stop offset="0.202928" stop-color="#202020"/><stop offset="0.790963" stop-color="#202020"/><stop offset="1" stop-color="#494949"/></linearGradient>
          <linearGradient id="mb-p1" x1="47.8587" y1="377" x2="47.8587" y2="375.646" gradientUnits="userSpaceOnUse"><stop offset="0.462197" stop-color="#555555"/><stop offset="1" stop-color="#494949" stop-opacity="0"/></linearGradient>
          <linearGradient id="mb-p2" x1="29.3473" y1="375.194" x2="65.9185" y2="375.194" gradientUnits="userSpaceOnUse"><stop stop-color="#8E8F93"/><stop offset="0.0520804" stop-color="#A7A7A9"/><stop offset="0.153" stop-color="#535459"/><stop offset="0.380607" stop-color="#A7A7A9"/><stop offset="0.57171" stop-color="#A7A7A9"/><stop offset="0.835819" stop-color="#535459"/><stop offset="0.943181" stop-color="#A7A7A9"/><stop offset="1" stop-color="#8E8F93"/></linearGradient>
          <linearGradient id="mb-p3" x1="553.987" y1="376.323" x2="587.172" y2="376.323" gradientUnits="userSpaceOnUse"><stop stop-color="#494949"/><stop offset="0.202928" stop-color="#202020"/><stop offset="0.790963" stop-color="#202020"/><stop offset="1" stop-color="#494949"/></linearGradient>
          <linearGradient id="mb-p4" x1="570.692" y1="377" x2="570.692" y2="375.646" gradientUnits="userSpaceOnUse"><stop offset="0.462197" stop-color="#555555"/><stop offset="1" stop-color="#494949" stop-opacity="0"/></linearGradient>
          <linearGradient id="mb-p5" x1="552.181" y1="375.194" x2="588.752" y2="375.194" gradientUnits="userSpaceOnUse"><stop stop-color="#8E8F93"/><stop offset="0.0520804" stop-color="#A7A7A9"/><stop offset="0.153" stop-color="#535459"/><stop offset="0.380607" stop-color="#A7A7A9"/><stop offset="0.57171" stop-color="#A7A7A9"/><stop offset="0.835819" stop-color="#535459"/><stop offset="0.943181" stop-color="#A7A7A9"/><stop offset="1" stop-color="#8E8F93"/></linearGradient>
          <linearGradient id="mb-p6" x1="0" y1="363.455" x2="618.551" y2="363.455" gradientUnits="userSpaceOnUse"><stop stop-color="#A0A1A5"/><stop offset="0.0182411" stop-color="#D3D4D9"/><stop offset="0.0572677" stop-color="#6A6B70"/><stop offset="0.0871115" stop-color="#797A7F"/><stop offset="0.213824" stop-color="#A8A9AE"/><stop offset="0.786959" stop-color="#A8A9AE"/><stop offset="0.917556" stop-color="#797A7F"/><stop offset="0.946746" stop-color="#6A6B70"/><stop offset="0.978072" stop-color="#D3D4D9"/><stop offset="1" stop-color="#A0A1A5"/></linearGradient>
          <linearGradient id="mb-p7" x1="309.275" y1="352.619" x2="309.275" y2="374.291" gradientUnits="userSpaceOnUse"><stop stop-color="#858688" stop-opacity="0"/><stop offset="0.651042" stop-color="#737479"/><stop offset="0.927083" stop-color="#B7B8BD"/><stop offset="1" stop-color="#858688"/></linearGradient>
          <linearGradient id="mb-p8" x1="261.868" y1="356.231" x2="356.683" y2="356.231" gradientUnits="userSpaceOnUse"><stop stop-color="#C6C7CC"/><stop offset="0.467668" stop-color="#D0D1D6"/><stop offset="1" stop-color="#C6C7CC"/></linearGradient>
          <linearGradient id="mb-p9" x1="309.275" y1="340.429" x2="309.275" y2="352.619" gradientUnits="userSpaceOnUse"><stop stop-color="#232323"/><stop offset="1" stop-color="#0A0A0C"/></linearGradient>
        </defs>
      </svg>
